<svg xmlns="http://www.w3.org/2000/svg" width="1250" height="1250" viewBox="0 0 1250 1250">
  <defs>
    <filter id="shadow" x="-20%" y="-20%" width="140%" height="140%"><feDropShadow dx="0" dy="18" stdDeviation="24" flood-color="#7d43c6" flood-opacity=".16"/></filter>
    <linearGradient id="bg" x1="0" y1="0" x2="1" y2="1"><stop stop-color="#f8f7ff"/><stop offset="1" stop-color="#eef9ff"/></linearGradient>
  </defs>
  <rect width="1250" height="1250" fill="url(#bg)"/>
  <path d="M-20 530 C180 610 310 125 535 165 C765 205 720 795 1268 560" fill="none" stroke="#d9c6ff" stroke-width="5" opacity=".28"/>
  <path d="M455 -20 C505 205 590 315 880 256 C1040 222 1090 44 1260 78" fill="none" stroke="#ffd4de" stroke-width="5" opacity=".32"/>
  <rect x="80" y="66" width="1094" height="1034" rx="55" fill="#fff" stroke="#b996ff" stroke-width="3" filter="url(#shadow)"/>
  <circle cx="244.51" cy="223.51" r="8.18" fill="#7d43c6"/>
<circle cx="263.54" cy="223.51" r="8.18" fill="#7d43c6"/>
<circle cx="282.56" cy="223.51" r="8.18" fill="#7d43c6"/>
<circle cx="301.59" cy="223.51" r="8.18" fill="#7d43c6"/>
<circle cx="320.61" cy="223.51" r="8.18" fill="#7d43c6"/>
<circle cx="339.63" cy="223.51" r="8.18" fill="#7d43c6"/>
<circle cx="358.66" cy="223.51" r="8.18" fill="#7d43c6"/>
<circle cx="415.73" cy="223.51" r="8.18" fill="#7d43c6"/>
<circle cx="434.76" cy="223.51" r="8.18" fill="#7d43c6"/>
<circle cx="472.80" cy="223.51" r="8.18" fill="#7d43c6"/>
<circle cx="491.83" cy="223.51" r="8.18" fill="#7d43c6"/>
<circle cx="529.88" cy="223.51" r="8.18" fill="#7d43c6"/>
<circle cx="548.90" cy="223.51" r="8.18" fill="#7d43c6"/>
<circle cx="605.98" cy="223.51" r="8.18" fill="#7d43c6"/>
<circle cx="644.02" cy="223.51" r="8.18" fill="#d90023"/>
<circle cx="720.12" cy="223.51" r="8.18" fill="#d90023"/>
<circle cx="739.15" cy="223.51" r="8.18" fill="#d90023"/>
<circle cx="796.22" cy="223.51" r="8.18" fill="#d90023"/>
<circle cx="815.24" cy="223.51" r="8.18" fill="#d90023"/>
<circle cx="834.27" cy="223.51" r="8.18" fill="#d90023"/>
<circle cx="853.29" cy="223.51" r="8.18" fill="#d90023"/>
<circle cx="891.34" cy="223.51" r="8.18" fill="#d90023"/>
<circle cx="910.37" cy="223.51" r="8.18" fill="#d90023"/>
<circle cx="929.39" cy="223.51" r="8.18" fill="#d90023"/>
<circle cx="948.41" cy="223.51" r="8.18" fill="#d90023"/>
<circle cx="967.44" cy="223.51" r="8.18" fill="#d90023"/>
<circle cx="986.46" cy="223.51" r="8.18" fill="#d90023"/>
<circle cx="1005.49" cy="223.51" r="8.18" fill="#d90023"/>
<circle cx="244.51" cy="242.54" r="8.18" fill="#7d43c6"/>
<circle cx="358.66" cy="242.54" r="8.18" fill="#7d43c6"/>
<circle cx="415.73" cy="242.54" r="8.18" fill="#7d43c6"/>
<circle cx="491.83" cy="242.54" r="8.18" fill="#7d43c6"/>
<circle cx="529.88" cy="242.54" r="8.18" fill="#7d43c6"/>
<circle cx="548.90" cy="242.54" r="8.18" fill="#7d43c6"/>
<circle cx="567.93" cy="242.54" r="8.18" fill="#7d43c6"/>
<circle cx="605.98" cy="242.54" r="8.18" fill="#7d43c6"/>
<circle cx="625.00" cy="242.54" r="8.18" fill="#d90023"/>
<circle cx="682.07" cy="242.54" r="8.18" fill="#d90023"/>
<circle cx="701.10" cy="242.54" r="8.18" fill="#d90023"/>
<circle cx="720.12" cy="242.54" r="8.18" fill="#d90023"/>
<circle cx="815.24" cy="242.54" r="8.18" fill="#d90023"/>
<circle cx="834.27" cy="242.54" r="8.18" fill="#d90023"/>
<circle cx="853.29" cy="242.54" r="8.18" fill="#d90023"/>
<circle cx="891.34" cy="242.54" r="8.18" fill="#d90023"/>
<circle cx="1005.49" cy="242.54" r="8.18" fill="#d90023"/>
<circle cx="244.51" cy="261.56" r="8.18" fill="#7d43c6"/>
<circle cx="282.56" cy="261.56" r="8.18" fill="#7d43c6"/>
<circle cx="301.59" cy="261.56" r="8.18" fill="#7d43c6"/>
<circle cx="320.61" cy="261.56" r="8.18" fill="#7d43c6"/>
<circle cx="358.66" cy="261.56" r="8.18" fill="#7d43c6"/>
<circle cx="415.73" cy="261.56" r="8.18" fill="#7d43c6"/>
<circle cx="453.78" cy="261.56" r="8.18" fill="#7d43c6"/>
<circle cx="491.83" cy="261.56" r="8.18" fill="#7d43c6"/>
<circle cx="510.85" cy="261.56" r="8.18" fill="#7d43c6"/>
<circle cx="529.88" cy="261.56" r="8.18" fill="#7d43c6"/>
<circle cx="567.93" cy="261.56" r="8.18" fill="#7d43c6"/>
<circle cx="605.98" cy="261.56" r="8.18" fill="#7d43c6"/>
<circle cx="644.02" cy="261.56" r="8.18" fill="#d90023"/>
<circle cx="682.07" cy="261.56" r="8.18" fill="#d90023"/>
<circle cx="701.10" cy="261.56" r="8.18" fill="#d90023"/>
<circle cx="739.15" cy="261.56" r="8.18" fill="#d90023"/>
<circle cx="758.17" cy="261.56" r="8.18" fill="#d90023"/>
<circle cx="777.20" cy="261.56" r="8.18" fill="#d90023"/>
<circle cx="796.22" cy="261.56" r="8.18" fill="#d90023"/>
<circle cx="853.29" cy="261.56" r="8.18" fill="#d90023"/>
<circle cx="891.34" cy="261.56" r="8.18" fill="#d90023"/>
<circle cx="929.39" cy="261.56" r="8.18" fill="#d90023"/>
<circle cx="948.41" cy="261.56" r="8.18" fill="#d90023"/>
<circle cx="967.44" cy="261.56" r="8.18" fill="#d90023"/>
<circle cx="1005.49" cy="261.56" r="8.18" fill="#d90023"/>
<circle cx="244.51" cy="280.59" r="8.18" fill="#7d43c6"/>
<circle cx="282.56" cy="280.59" r="8.18" fill="#7d43c6"/>
<circle cx="301.59" cy="280.59" r="8.18" fill="#7d43c6"/>
<circle cx="320.61" cy="280.59" r="8.18" fill="#7d43c6"/>
<circle cx="358.66" cy="280.59" r="8.18" fill="#7d43c6"/>
<circle cx="396.71" cy="280.59" r="8.18" fill="#7d43c6"/>
<circle cx="472.80" cy="280.59" r="8.18" fill="#7d43c6"/>
<circle cx="510.85" cy="280.59" r="8.18" fill="#7d43c6"/>
<circle cx="625.00" cy="280.59" r="8.18" fill="#d90023"/>
<circle cx="663.05" cy="280.59" r="8.18" fill="#d90023"/>
<circle cx="682.07" cy="280.59" r="8.18" fill="#d90023"/>
<circle cx="701.10" cy="280.59" r="8.18" fill="#d90023"/>
<circle cx="739.15" cy="280.59" r="8.18" fill="#d90023"/>
<circle cx="796.22" cy="280.59" r="8.18" fill="#d90023"/>
<circle cx="815.24" cy="280.59" r="8.18" fill="#d90023"/>
<circle cx="891.34" cy="280.59" r="8.18" fill="#d90023"/>
<circle cx="929.39" cy="280.59" r="8.18" fill="#d90023"/>
<circle cx="948.41" cy="280.59" r="8.18" fill="#d90023"/>
<circle cx="967.44" cy="280.59" r="8.18" fill="#d90023"/>
<circle cx="1005.49" cy="280.59" r="8.18" fill="#d90023"/>
<circle cx="244.51" cy="299.61" r="8.18" fill="#7d43c6"/>
<circle cx="282.56" cy="299.61" r="8.18" fill="#7d43c6"/>
<circle cx="301.59" cy="299.61" r="8.18" fill="#7d43c6"/>
<circle cx="320.61" cy="299.61" r="8.18" fill="#7d43c6"/>
<circle cx="358.66" cy="299.61" r="8.18" fill="#7d43c6"/>
<circle cx="396.71" cy="299.61" r="8.18" fill="#7d43c6"/>
<circle cx="415.73" cy="299.61" r="8.18" fill="#7d43c6"/>
<circle cx="434.76" cy="299.61" r="8.18" fill="#7d43c6"/>
<circle cx="453.78" cy="299.61" r="8.18" fill="#7d43c6"/>
<circle cx="491.83" cy="299.61" r="8.18" fill="#7d43c6"/>
<circle cx="510.85" cy="299.61" r="8.18" fill="#7d43c6"/>
<circle cx="567.93" cy="299.61" r="8.18" fill="#7d43c6"/>
<circle cx="605.98" cy="299.61" r="8.18" fill="#7d43c6"/>
<circle cx="682.07" cy="299.61" r="8.18" fill="#d90023"/>
<circle cx="701.10" cy="299.61" r="8.18" fill="#d90023"/>
<circle cx="739.15" cy="299.61" r="8.18" fill="#d90023"/>
<circle cx="758.17" cy="299.61" r="8.18" fill="#d90023"/>
<circle cx="777.20" cy="299.61" r="8.18" fill="#d90023"/>
<circle cx="796.22" cy="299.61" r="8.18" fill="#d90023"/>
<circle cx="834.27" cy="299.61" r="8.18" fill="#d90023"/>
<circle cx="891.34" cy="299.61" r="8.18" fill="#d90023"/>
<circle cx="929.39" cy="299.61" r="8.18" fill="#d90023"/>
<circle cx="948.41" cy="299.61" r="8.18" fill="#d90023"/>
<circle cx="967.44" cy="299.61" r="8.18" fill="#d90023"/>
<circle cx="1005.49" cy="299.61" r="8.18" fill="#d90023"/>
<circle cx="244.51" cy="318.63" r="8.18" fill="#7d43c6"/>
<circle cx="358.66" cy="318.63" r="8.18" fill="#7d43c6"/>
<circle cx="415.73" cy="318.63" r="8.18" fill="#7d43c6"/>
<circle cx="453.78" cy="318.63" r="8.18" fill="#7d43c6"/>
<circle cx="529.88" cy="318.63" r="8.18" fill="#7d43c6"/>
<circle cx="567.93" cy="318.63" r="8.18" fill="#7d43c6"/>
<circle cx="605.98" cy="318.63" r="8.18" fill="#7d43c6"/>
<circle cx="663.05" cy="318.63" r="8.18" fill="#d90023"/>
<circle cx="739.15" cy="318.63" r="8.18" fill="#d90023"/>
<circle cx="758.17" cy="318.63" r="8.18" fill="#d90023"/>
<circle cx="777.20" cy="318.63" r="8.18" fill="#d90023"/>
<circle cx="834.27" cy="318.63" r="8.18" fill="#d90023"/>
<circle cx="853.29" cy="318.63" r="8.18" fill="#d90023"/>
<circle cx="891.34" cy="318.63" r="8.18" fill="#d90023"/>
<circle cx="1005.49" cy="318.63" r="8.18" fill="#d90023"/>
<circle cx="244.51" cy="337.66" r="8.18" fill="#7d43c6"/>
<circle cx="263.54" cy="337.66" r="8.18" fill="#7d43c6"/>
<circle cx="282.56" cy="337.66" r="8.18" fill="#7d43c6"/>
<circle cx="301.59" cy="337.66" r="8.18" fill="#7d43c6"/>
<circle cx="320.61" cy="337.66" r="8.18" fill="#7d43c6"/>
<circle cx="339.63" cy="337.66" r="8.18" fill="#7d43c6"/>
<circle cx="358.66" cy="337.66" r="8.18" fill="#7d43c6"/>
<circle cx="396.71" cy="337.66" r="8.18" fill="#7d43c6"/>
<circle cx="434.76" cy="337.66" r="8.18" fill="#7d43c6"/>
<circle cx="472.80" cy="337.66" r="8.18" fill="#7d43c6"/>
<circle cx="510.85" cy="337.66" r="8.18" fill="#7d43c6"/>
<circle cx="548.90" cy="337.66" r="8.18" fill="#7d43c6"/>
<circle cx="586.95" cy="337.66" r="8.18" fill="#7d43c6"/>
<circle cx="625.00" cy="337.66" r="8.18" fill="#d90023"/>
<circle cx="663.05" cy="337.66" r="8.18" fill="#d90023"/>
<circle cx="701.10" cy="337.66" r="8.18" fill="#d90023"/>
<circle cx="739.15" cy="337.66" r="8.18" fill="#d90023"/>
<circle cx="777.20" cy="337.66" r="8.18" fill="#d90023"/>
<circle cx="815.24" cy="337.66" r="8.18" fill="#d90023"/>
<circle cx="853.29" cy="337.66" r="8.18" fill="#d90023"/>
<circle cx="891.34" cy="337.66" r="8.18" fill="#d90023"/>
<circle cx="910.37" cy="337.66" r="8.18" fill="#d90023"/>
<circle cx="929.39" cy="337.66" r="8.18" fill="#d90023"/>
<circle cx="948.41" cy="337.66" r="8.18" fill="#d90023"/>
<circle cx="967.44" cy="337.66" r="8.18" fill="#d90023"/>
<circle cx="986.46" cy="337.66" r="8.18" fill="#d90023"/>
<circle cx="1005.49" cy="337.66" r="8.18" fill="#d90023"/>
<circle cx="396.71" cy="356.68" r="8.18" fill="#7d43c6"/>
<circle cx="415.73" cy="356.68" r="8.18" fill="#7d43c6"/>
<circle cx="510.85" cy="356.68" r="8.18" fill="#7d43c6"/>
<circle cx="548.90" cy="356.68" r="8.18" fill="#7d43c6"/>
<circle cx="605.98" cy="356.68" r="8.18" fill="#7d43c6"/>
<circle cx="663.05" cy="356.68" r="8.18" fill="#d90023"/>
<circle cx="682.07" cy="356.68" r="8.18" fill="#d90023"/>
<circle cx="777.20" cy="356.68" r="8.18" fill="#d90023"/>
<circle cx="796.22" cy="356.68" r="8.18" fill="#d90023"/>
<circle cx="853.29" cy="356.68" r="8.18" fill="#d90023"/>
<circle cx="282.56" cy="375.71" r="8.18" fill="#7d43c6"/>
<circle cx="301.59" cy="375.71" r="8.18" fill="#7d43c6"/>
<circle cx="358.66" cy="375.71" r="8.18" fill="#7d43c6"/>
<circle cx="453.78" cy="375.71" r="8.18" fill="#7d43c6"/>
<circle cx="472.80" cy="375.71" r="8.18" fill="#7d43c6"/>
<circle cx="529.88" cy="375.71" r="8.18" fill="#7d43c6"/>
<circle cx="548.90" cy="375.71" r="8.18" fill="#7d43c6"/>
<circle cx="605.98" cy="375.71" r="8.18" fill="#7d43c6"/>
<circle cx="682.07" cy="375.71" r="8.18" fill="#d90023"/>
<circle cx="720.12" cy="375.71" r="8.18" fill="#d90023"/>
<circle cx="739.15" cy="375.71" r="8.18" fill="#d90023"/>
<circle cx="777.20" cy="375.71" r="8.18" fill="#d90023"/>
<circle cx="872.32" cy="375.71" r="8.18" fill="#d90023"/>
<circle cx="891.34" cy="375.71" r="8.18" fill="#d90023"/>
<circle cx="929.39" cy="375.71" r="8.18" fill="#d90023"/>
<circle cx="948.41" cy="375.71" r="8.18" fill="#d90023"/>
<circle cx="244.51" cy="394.73" r="8.18" fill="#7d43c6"/>
<circle cx="301.59" cy="394.73" r="8.18" fill="#7d43c6"/>
<circle cx="339.63" cy="394.73" r="8.18" fill="#7d43c6"/>
<circle cx="415.73" cy="394.73" r="8.18" fill="#7d43c6"/>
<circle cx="453.78" cy="394.73" r="8.18" fill="#7d43c6"/>
<circle cx="491.83" cy="394.73" r="8.18" fill="#7d43c6"/>
<circle cx="510.85" cy="394.73" r="8.18" fill="#7d43c6"/>
<circle cx="529.88" cy="394.73" r="8.18" fill="#7d43c6"/>
<circle cx="548.90" cy="394.73" r="8.18" fill="#7d43c6"/>
<circle cx="625.00" cy="394.73" r="8.18" fill="#d90023"/>
<circle cx="644.02" cy="394.73" r="8.18" fill="#d90023"/>
<circle cx="701.10" cy="394.73" r="8.18" fill="#d90023"/>
<circle cx="796.22" cy="394.73" r="8.18" fill="#d90023"/>
<circle cx="891.34" cy="394.73" r="8.18" fill="#d90023"/>
<circle cx="910.37" cy="394.73" r="8.18" fill="#d90023"/>
<circle cx="929.39" cy="394.73" r="8.18" fill="#d90023"/>
<circle cx="1005.49" cy="394.73" r="8.18" fill="#d90023"/>
<circle cx="244.51" cy="413.76" r="8.18" fill="#7d43c6"/>
<circle cx="263.54" cy="413.76" r="8.18" fill="#7d43c6"/>
<circle cx="282.56" cy="413.76" r="8.18" fill="#7d43c6"/>
<circle cx="320.61" cy="413.76" r="8.18" fill="#7d43c6"/>
<circle cx="358.66" cy="413.76" r="8.18" fill="#7d43c6"/>
<circle cx="377.68" cy="413.76" r="8.18" fill="#7d43c6"/>
<circle cx="396.71" cy="413.76" r="8.18" fill="#7d43c6"/>
<circle cx="434.76" cy="413.76" r="8.18" fill="#7d43c6"/>
<circle cx="491.83" cy="413.76" r="8.18" fill="#7d43c6"/>
<circle cx="529.88" cy="413.76" r="8.18" fill="#7d43c6"/>
<circle cx="586.95" cy="413.76" r="8.18" fill="#7d43c6"/>
<circle cx="663.05" cy="413.76" r="8.18" fill="#d90023"/>
<circle cx="777.20" cy="413.76" r="8.18" fill="#d90023"/>
<circle cx="796.22" cy="413.76" r="8.18" fill="#d90023"/>
<circle cx="853.29" cy="413.76" r="8.18" fill="#d90023"/>
<circle cx="891.34" cy="413.76" r="8.18" fill="#d90023"/>
<circle cx="910.37" cy="413.76" r="8.18" fill="#d90023"/>
<circle cx="929.39" cy="413.76" r="8.18" fill="#d90023"/>
<circle cx="948.41" cy="413.76" r="8.18" fill="#d90023"/>
<circle cx="986.46" cy="413.76" r="8.18" fill="#d90023"/>
<circle cx="244.51" cy="432.78" r="8.18" fill="#7d43c6"/>
<circle cx="282.56" cy="432.78" r="8.18" fill="#7d43c6"/>
<circle cx="377.68" cy="432.78" r="8.18" fill="#7d43c6"/>
<circle cx="415.73" cy="432.78" r="8.18" fill="#7d43c6"/>
<circle cx="434.76" cy="432.78" r="8.18" fill="#7d43c6"/>
<circle cx="491.83" cy="432.78" r="8.18" fill="#7d43c6"/>
<circle cx="510.85" cy="432.78" r="8.18" fill="#7d43c6"/>
<circle cx="529.88" cy="432.78" r="8.18" fill="#7d43c6"/>
<circle cx="567.93" cy="432.78" r="8.18" fill="#7d43c6"/>
<circle cx="586.95" cy="432.78" r="8.18" fill="#7d43c6"/>
<circle cx="605.98" cy="432.78" r="8.18" fill="#7d43c6"/>
<circle cx="663.05" cy="432.78" r="8.18" fill="#d90023"/>
<circle cx="815.24" cy="432.78" r="8.18" fill="#d90023"/>
<circle cx="872.32" cy="432.78" r="8.18" fill="#d90023"/>
<circle cx="910.37" cy="432.78" r="8.18" fill="#d90023"/>
<circle cx="244.51" cy="451.80" r="8.18" fill="#7d43c6"/>
<circle cx="263.54" cy="451.80" r="8.18" fill="#7d43c6"/>
<circle cx="282.56" cy="451.80" r="8.18" fill="#7d43c6"/>
<circle cx="301.59" cy="451.80" r="8.18" fill="#7d43c6"/>
<circle cx="320.61" cy="451.80" r="8.18" fill="#7d43c6"/>
<circle cx="358.66" cy="451.80" r="8.18" fill="#7d43c6"/>
<circle cx="377.68" cy="451.80" r="8.18" fill="#7d43c6"/>
<circle cx="415.73" cy="451.80" r="8.18" fill="#7d43c6"/>
<circle cx="434.76" cy="451.80" r="8.18" fill="#7d43c6"/>
<circle cx="453.78" cy="451.80" r="8.18" fill="#7d43c6"/>
<circle cx="472.80" cy="451.80" r="8.18" fill="#7d43c6"/>
<circle cx="510.85" cy="451.80" r="8.18" fill="#7d43c6"/>
<circle cx="548.90" cy="451.80" r="8.18" fill="#7d43c6"/>
<circle cx="586.95" cy="451.80" r="8.18" fill="#7d43c6"/>
<circle cx="605.98" cy="451.80" r="8.18" fill="#7d43c6"/>
<circle cx="682.07" cy="451.80" r="8.18" fill="#d90023"/>
<circle cx="720.12" cy="451.80" r="8.18" fill="#d90023"/>
<circle cx="739.15" cy="451.80" r="8.18" fill="#d90023"/>
<circle cx="777.20" cy="451.80" r="8.18" fill="#d90023"/>
<circle cx="815.24" cy="451.80" r="8.18" fill="#d90023"/>
<circle cx="948.41" cy="451.80" r="8.18" fill="#d90023"/>
<circle cx="1005.49" cy="451.80" r="8.18" fill="#d90023"/>
<circle cx="263.54" cy="470.83" r="8.18" fill="#7d43c6"/>
<circle cx="301.59" cy="470.83" r="8.18" fill="#7d43c6"/>
<circle cx="320.61" cy="470.83" r="8.18" fill="#7d43c6"/>
<circle cx="339.63" cy="470.83" r="8.18" fill="#7d43c6"/>
<circle cx="377.68" cy="470.83" r="8.18" fill="#7d43c6"/>
<circle cx="396.71" cy="470.83" r="8.18" fill="#7d43c6"/>
<circle cx="415.73" cy="470.83" r="8.18" fill="#7d43c6"/>
<circle cx="453.78" cy="470.83" r="8.18" fill="#7d43c6"/>
<circle cx="472.80" cy="470.83" r="8.18" fill="#7d43c6"/>
<circle cx="491.83" cy="470.83" r="8.18" fill="#7d43c6"/>
<circle cx="510.85" cy="470.83" r="8.18" fill="#7d43c6"/>
<circle cx="548.90" cy="470.83" r="8.18" fill="#7d43c6"/>
<circle cx="701.10" cy="470.83" r="8.18" fill="#d90023"/>
<circle cx="777.20" cy="470.83" r="8.18" fill="#d90023"/>
<circle cx="796.22" cy="470.83" r="8.18" fill="#d90023"/>
<circle cx="834.27" cy="470.83" r="8.18" fill="#d90023"/>
<circle cx="853.29" cy="470.83" r="8.18" fill="#d90023"/>
<circle cx="872.32" cy="470.83" r="8.18" fill="#d90023"/>
<circle cx="910.37" cy="470.83" r="8.18" fill="#d90023"/>
<circle cx="986.46" cy="470.83" r="8.18" fill="#d90023"/>
<circle cx="1005.49" cy="470.83" r="8.18" fill="#d90023"/>
<circle cx="358.66" cy="489.85" r="8.18" fill="#7d43c6"/>
<circle cx="396.71" cy="489.85" r="8.18" fill="#7d43c6"/>
<circle cx="453.78" cy="489.85" r="8.18" fill="#7d43c6"/>
<circle cx="777.20" cy="489.85" r="8.18" fill="#d90023"/>
<circle cx="796.22" cy="489.85" r="8.18" fill="#d90023"/>
<circle cx="815.24" cy="489.85" r="8.18" fill="#d90023"/>
<circle cx="872.32" cy="489.85" r="8.18" fill="#d90023"/>
<circle cx="910.37" cy="489.85" r="8.18" fill="#d90023"/>
<circle cx="929.39" cy="489.85" r="8.18" fill="#d90023"/>
<circle cx="948.41" cy="489.85" r="8.18" fill="#d90023"/>
<circle cx="967.44" cy="489.85" r="8.18" fill="#d90023"/>
<circle cx="282.56" cy="508.88" r="8.18" fill="#7d43c6"/>
<circle cx="301.59" cy="508.88" r="8.18" fill="#7d43c6"/>
<circle cx="320.61" cy="508.88" r="8.18" fill="#7d43c6"/>
<circle cx="396.71" cy="508.88" r="8.18" fill="#7d43c6"/>
<circle cx="453.78" cy="508.88" r="8.18" fill="#7d43c6"/>
<circle cx="472.80" cy="508.88" r="8.18" fill="#7d43c6"/>
<circle cx="491.83" cy="508.88" r="8.18" fill="#7d43c6"/>
<circle cx="777.20" cy="508.88" r="8.18" fill="#d90023"/>
<circle cx="815.24" cy="508.88" r="8.18" fill="#d90023"/>
<circle cx="834.27" cy="508.88" r="8.18" fill="#d90023"/>
<circle cx="872.32" cy="508.88" r="8.18" fill="#d90023"/>
<circle cx="891.34" cy="508.88" r="8.18" fill="#d90023"/>
<circle cx="929.39" cy="508.88" r="8.18" fill="#d90023"/>
<circle cx="948.41" cy="508.88" r="8.18" fill="#d90023"/>
<circle cx="967.44" cy="508.88" r="8.18" fill="#d90023"/>
<circle cx="986.46" cy="508.88" r="8.18" fill="#d90023"/>
<circle cx="263.54" cy="527.90" r="8.18" fill="#7d43c6"/>
<circle cx="301.59" cy="527.90" r="8.18" fill="#7d43c6"/>
<circle cx="358.66" cy="527.90" r="8.18" fill="#7d43c6"/>
<circle cx="377.68" cy="527.90" r="8.18" fill="#7d43c6"/>
<circle cx="415.73" cy="527.90" r="8.18" fill="#7d43c6"/>
<circle cx="453.78" cy="527.90" r="8.18" fill="#7d43c6"/>
<circle cx="472.80" cy="527.90" r="8.18" fill="#7d43c6"/>
<circle cx="491.83" cy="527.90" r="8.18" fill="#7d43c6"/>
<circle cx="758.17" cy="527.90" r="8.18" fill="#d90023"/>
<circle cx="777.20" cy="527.90" r="8.18" fill="#d90023"/>
<circle cx="815.24" cy="527.90" r="8.18" fill="#d90023"/>
<circle cx="834.27" cy="527.90" r="8.18" fill="#d90023"/>
<circle cx="853.29" cy="527.90" r="8.18" fill="#d90023"/>
<circle cx="872.32" cy="527.90" r="8.18" fill="#d90023"/>
<circle cx="891.34" cy="527.90" r="8.18" fill="#d90023"/>
<circle cx="910.37" cy="527.90" r="8.18" fill="#d90023"/>
<circle cx="929.39" cy="527.90" r="8.18" fill="#d90023"/>
<circle cx="948.41" cy="527.90" r="8.18" fill="#d90023"/>
<circle cx="244.51" cy="546.93" r="8.18" fill="#7d43c6"/>
<circle cx="263.54" cy="546.93" r="8.18" fill="#7d43c6"/>
<circle cx="282.56" cy="546.93" r="8.18" fill="#7d43c6"/>
<circle cx="339.63" cy="546.93" r="8.18" fill="#7d43c6"/>
<circle cx="377.68" cy="546.93" r="8.18" fill="#7d43c6"/>
<circle cx="396.71" cy="546.93" r="8.18" fill="#7d43c6"/>
<circle cx="434.76" cy="546.93" r="8.18" fill="#7d43c6"/>
<circle cx="491.83" cy="546.93" r="8.18" fill="#7d43c6"/>
<circle cx="758.17" cy="546.93" r="8.18" fill="#d90023"/>
<circle cx="796.22" cy="546.93" r="8.18" fill="#d90023"/>
<circle cx="834.27" cy="546.93" r="8.18" fill="#d90023"/>
<circle cx="891.34" cy="546.93" r="8.18" fill="#d90023"/>
<circle cx="910.37" cy="546.93" r="8.18" fill="#d90023"/>
<circle cx="986.46" cy="546.93" r="8.18" fill="#d90023"/>
<circle cx="244.51" cy="565.95" r="8.18" fill="#7d43c6"/>
<circle cx="301.59" cy="565.95" r="8.18" fill="#7d43c6"/>
<circle cx="358.66" cy="565.95" r="8.18" fill="#7d43c6"/>
<circle cx="377.68" cy="565.95" r="8.18" fill="#7d43c6"/>
<circle cx="396.71" cy="565.95" r="8.18" fill="#7d43c6"/>
<circle cx="415.73" cy="565.95" r="8.18" fill="#7d43c6"/>
<circle cx="434.76" cy="565.95" r="8.18" fill="#7d43c6"/>
<circle cx="453.78" cy="565.95" r="8.18" fill="#7d43c6"/>
<circle cx="472.80" cy="565.95" r="8.18" fill="#7d43c6"/>
<circle cx="491.83" cy="565.95" r="8.18" fill="#7d43c6"/>
<circle cx="758.17" cy="565.95" r="8.18" fill="#d90023"/>
<circle cx="777.20" cy="565.95" r="8.18" fill="#d90023"/>
<circle cx="796.22" cy="565.95" r="8.18" fill="#d90023"/>
<circle cx="853.29" cy="565.95" r="8.18" fill="#d90023"/>
<circle cx="872.32" cy="565.95" r="8.18" fill="#d90023"/>
<circle cx="891.34" cy="565.95" r="8.18" fill="#d90023"/>
<circle cx="910.37" cy="565.95" r="8.18" fill="#d90023"/>
<circle cx="929.39" cy="565.95" r="8.18" fill="#d90023"/>
<circle cx="986.46" cy="565.95" r="8.18" fill="#d90023"/>
<circle cx="244.51" cy="584.98" r="8.18" fill="#7d43c6"/>
<circle cx="263.54" cy="584.98" r="8.18" fill="#7d43c6"/>
<circle cx="301.59" cy="584.98" r="8.18" fill="#7d43c6"/>
<circle cx="320.61" cy="584.98" r="8.18" fill="#7d43c6"/>
<circle cx="339.63" cy="584.98" r="8.18" fill="#7d43c6"/>
<circle cx="415.73" cy="584.98" r="8.18" fill="#7d43c6"/>
<circle cx="758.17" cy="584.98" r="8.18" fill="#d90023"/>
<circle cx="777.20" cy="584.98" r="8.18" fill="#d90023"/>
<circle cx="796.22" cy="584.98" r="8.18" fill="#d90023"/>
<circle cx="815.24" cy="584.98" r="8.18" fill="#d90023"/>
<circle cx="853.29" cy="584.98" r="8.18" fill="#d90023"/>
<circle cx="967.44" cy="584.98" r="8.18" fill="#d90023"/>
<circle cx="986.46" cy="584.98" r="8.18" fill="#d90023"/>
<circle cx="339.63" cy="604.00" r="8.18" fill="#7d43c6"/>
<circle cx="358.66" cy="604.00" r="8.18" fill="#7d43c6"/>
<circle cx="396.71" cy="604.00" r="8.18" fill="#7d43c6"/>
<circle cx="415.73" cy="604.00" r="8.18" fill="#7d43c6"/>
<circle cx="472.80" cy="604.00" r="8.18" fill="#7d43c6"/>
<circle cx="491.83" cy="604.00" r="8.18" fill="#7d43c6"/>
<circle cx="758.17" cy="604.00" r="8.18" fill="#d90023"/>
<circle cx="815.24" cy="604.00" r="8.18" fill="#d90023"/>
<circle cx="834.27" cy="604.00" r="8.18" fill="#d90023"/>
<circle cx="853.29" cy="604.00" r="8.18" fill="#d90023"/>
<circle cx="891.34" cy="604.00" r="8.18" fill="#d90023"/>
<circle cx="910.37" cy="604.00" r="8.18" fill="#d90023"/>
<circle cx="948.41" cy="604.00" r="8.18" fill="#d90023"/>
<circle cx="244.51" cy="623.02" r="8.18" fill="#7d43c6"/>
<circle cx="263.54" cy="623.02" r="8.18" fill="#7d43c6"/>
<circle cx="301.59" cy="623.02" r="8.18" fill="#7d43c6"/>
<circle cx="472.80" cy="623.02" r="8.18" fill="#7d43c6"/>
<circle cx="796.22" cy="623.02" r="8.18" fill="#d90023"/>
<circle cx="815.24" cy="623.02" r="8.18" fill="#d90023"/>
<circle cx="834.27" cy="623.02" r="8.18" fill="#d90023"/>
<circle cx="910.37" cy="623.02" r="8.18" fill="#d90023"/>
<circle cx="948.41" cy="623.02" r="8.18" fill="#d90023"/>
<circle cx="986.46" cy="623.02" r="8.18" fill="#d90023"/>
<circle cx="1005.49" cy="623.02" r="8.18" fill="#d90023"/>
<circle cx="320.61" cy="642.05" r="8.18" fill="#7d43c6"/>
<circle cx="339.63" cy="642.05" r="8.18" fill="#7d43c6"/>
<circle cx="358.66" cy="642.05" r="8.18" fill="#7d43c6"/>
<circle cx="377.68" cy="642.05" r="8.18" fill="#7d43c6"/>
<circle cx="415.73" cy="642.05" r="8.18" fill="#7d43c6"/>
<circle cx="491.83" cy="642.05" r="8.18" fill="#7d43c6"/>
<circle cx="758.17" cy="642.05" r="8.18" fill="#d90023"/>
<circle cx="777.20" cy="642.05" r="8.18" fill="#d90023"/>
<circle cx="853.29" cy="642.05" r="8.18" fill="#d90023"/>
<circle cx="872.32" cy="642.05" r="8.18" fill="#d90023"/>
<circle cx="891.34" cy="642.05" r="8.18" fill="#d90023"/>
<circle cx="967.44" cy="642.05" r="8.18" fill="#d90023"/>
<circle cx="1005.49" cy="642.05" r="8.18" fill="#d90023"/>
<circle cx="282.56" cy="661.07" r="8.18" fill="#7d43c6"/>
<circle cx="301.59" cy="661.07" r="8.18" fill="#7d43c6"/>
<circle cx="339.63" cy="661.07" r="8.18" fill="#7d43c6"/>
<circle cx="377.68" cy="661.07" r="8.18" fill="#7d43c6"/>
<circle cx="415.73" cy="661.07" r="8.18" fill="#7d43c6"/>
<circle cx="434.76" cy="661.07" r="8.18" fill="#7d43c6"/>
<circle cx="453.78" cy="661.07" r="8.18" fill="#7d43c6"/>
<circle cx="472.80" cy="661.07" r="8.18" fill="#7d43c6"/>
<circle cx="491.83" cy="661.07" r="8.18" fill="#7d43c6"/>
<circle cx="758.17" cy="661.07" r="8.18" fill="#d90023"/>
<circle cx="796.22" cy="661.07" r="8.18" fill="#d90023"/>
<circle cx="815.24" cy="661.07" r="8.18" fill="#d90023"/>
<circle cx="853.29" cy="661.07" r="8.18" fill="#d90023"/>
<circle cx="872.32" cy="661.07" r="8.18" fill="#d90023"/>
<circle cx="910.37" cy="661.07" r="8.18" fill="#d90023"/>
<circle cx="948.41" cy="661.07" r="8.18" fill="#d90023"/>
<circle cx="967.44" cy="661.07" r="8.18" fill="#d90023"/>
<circle cx="320.61" cy="680.10" r="8.18" fill="#7d43c6"/>
<circle cx="339.63" cy="680.10" r="8.18" fill="#7d43c6"/>
<circle cx="358.66" cy="680.10" r="8.18" fill="#7d43c6"/>
<circle cx="434.76" cy="680.10" r="8.18" fill="#7d43c6"/>
<circle cx="453.78" cy="680.10" r="8.18" fill="#7d43c6"/>
<circle cx="758.17" cy="680.10" r="8.18" fill="#d90023"/>
<circle cx="815.24" cy="680.10" r="8.18" fill="#d90023"/>
<circle cx="872.32" cy="680.10" r="8.18" fill="#d90023"/>
<circle cx="986.46" cy="680.10" r="8.18" fill="#d90023"/>
<circle cx="339.63" cy="699.12" r="8.18" fill="#7d43c6"/>
<circle cx="377.68" cy="699.12" r="8.18" fill="#7d43c6"/>
<circle cx="415.73" cy="699.12" r="8.18" fill="#7d43c6"/>
<circle cx="434.76" cy="699.12" r="8.18" fill="#7d43c6"/>
<circle cx="815.24" cy="699.12" r="8.18" fill="#d90023"/>
<circle cx="834.27" cy="699.12" r="8.18" fill="#d90023"/>
<circle cx="853.29" cy="699.12" r="8.18" fill="#d90023"/>
<circle cx="948.41" cy="699.12" r="8.18" fill="#d90023"/>
<circle cx="967.44" cy="699.12" r="8.18" fill="#d90023"/>
<circle cx="986.46" cy="699.12" r="8.18" fill="#d90023"/>
<circle cx="1005.49" cy="699.12" r="8.18" fill="#d90023"/>
<circle cx="244.51" cy="718.15" r="8.18" fill="#7d43c6"/>
<circle cx="320.61" cy="718.15" r="8.18" fill="#7d43c6"/>
<circle cx="339.63" cy="718.15" r="8.18" fill="#7d43c6"/>
<circle cx="358.66" cy="718.15" r="8.18" fill="#7d43c6"/>
<circle cx="377.68" cy="718.15" r="8.18" fill="#7d43c6"/>
<circle cx="434.76" cy="718.15" r="8.18" fill="#7d43c6"/>
<circle cx="472.80" cy="718.15" r="8.18" fill="#7d43c6"/>
<circle cx="491.83" cy="718.15" r="8.18" fill="#7d43c6"/>
<circle cx="777.20" cy="718.15" r="8.18" fill="#d90023"/>
<circle cx="834.27" cy="718.15" r="8.18" fill="#d90023"/>
<circle cx="872.32" cy="718.15" r="8.18" fill="#d90023"/>
<circle cx="891.34" cy="718.15" r="8.18" fill="#d90023"/>
<circle cx="967.44" cy="718.15" r="8.18" fill="#d90023"/>
<circle cx="301.59" cy="737.17" r="8.18" fill="#7d43c6"/>
<circle cx="415.73" cy="737.17" r="8.18" fill="#7d43c6"/>
<circle cx="434.76" cy="737.17" r="8.18" fill="#7d43c6"/>
<circle cx="472.80" cy="737.17" r="8.18" fill="#7d43c6"/>
<circle cx="510.85" cy="737.17" r="8.18" fill="#7d43c6"/>
<circle cx="548.90" cy="737.17" r="8.18" fill="#7d43c6"/>
<circle cx="567.93" cy="737.17" r="8.18" fill="#7d43c6"/>
<circle cx="586.95" cy="737.17" r="8.18" fill="#7d43c6"/>
<circle cx="605.98" cy="737.17" r="8.18" fill="#7d43c6"/>
<circle cx="625.00" cy="737.17" r="8.18" fill="#d90023"/>
<circle cx="644.02" cy="737.17" r="8.18" fill="#d90023"/>
<circle cx="663.05" cy="737.17" r="8.18" fill="#d90023"/>
<circle cx="682.07" cy="737.17" r="8.18" fill="#d90023"/>
<circle cx="720.12" cy="737.17" r="8.18" fill="#d90023"/>
<circle cx="739.15" cy="737.17" r="8.18" fill="#d90023"/>
<circle cx="758.17" cy="737.17" r="8.18" fill="#d90023"/>
<circle cx="777.20" cy="737.17" r="8.18" fill="#d90023"/>
<circle cx="834.27" cy="737.17" r="8.18" fill="#d90023"/>
<circle cx="872.32" cy="737.17" r="8.18" fill="#d90023"/>
<circle cx="891.34" cy="737.17" r="8.18" fill="#d90023"/>
<circle cx="929.39" cy="737.17" r="8.18" fill="#d90023"/>
<circle cx="948.41" cy="737.17" r="8.18" fill="#d90023"/>
<circle cx="967.44" cy="737.17" r="8.18" fill="#d90023"/>
<circle cx="986.46" cy="737.17" r="8.18" fill="#d90023"/>
<circle cx="1005.49" cy="737.17" r="8.18" fill="#d90023"/>
<circle cx="263.54" cy="756.20" r="8.18" fill="#7d43c6"/>
<circle cx="301.59" cy="756.20" r="8.18" fill="#7d43c6"/>
<circle cx="358.66" cy="756.20" r="8.18" fill="#7d43c6"/>
<circle cx="377.68" cy="756.20" r="8.18" fill="#7d43c6"/>
<circle cx="396.71" cy="756.20" r="8.18" fill="#7d43c6"/>
<circle cx="434.76" cy="756.20" r="8.18" fill="#7d43c6"/>
<circle cx="453.78" cy="756.20" r="8.18" fill="#7d43c6"/>
<circle cx="529.88" cy="756.20" r="8.18" fill="#7d43c6"/>
<circle cx="586.95" cy="756.20" r="8.18" fill="#7d43c6"/>
<circle cx="625.00" cy="756.20" r="8.18" fill="#d90023"/>
<circle cx="663.05" cy="756.20" r="8.18" fill="#d90023"/>
<circle cx="701.10" cy="756.20" r="8.18" fill="#d90023"/>
<circle cx="720.12" cy="756.20" r="8.18" fill="#d90023"/>
<circle cx="739.15" cy="756.20" r="8.18" fill="#d90023"/>
<circle cx="758.17" cy="756.20" r="8.18" fill="#d90023"/>
<circle cx="815.24" cy="756.20" r="8.18" fill="#d90023"/>
<circle cx="834.27" cy="756.20" r="8.18" fill="#d90023"/>
<circle cx="910.37" cy="756.20" r="8.18" fill="#d90023"/>
<circle cx="929.39" cy="756.20" r="8.18" fill="#d90023"/>
<circle cx="948.41" cy="756.20" r="8.18" fill="#d90023"/>
<circle cx="986.46" cy="756.20" r="8.18" fill="#d90023"/>
<circle cx="1005.49" cy="756.20" r="8.18" fill="#d90023"/>
<circle cx="244.51" cy="775.22" r="8.18" fill="#7d43c6"/>
<circle cx="320.61" cy="775.22" r="8.18" fill="#7d43c6"/>
<circle cx="396.71" cy="775.22" r="8.18" fill="#7d43c6"/>
<circle cx="415.73" cy="775.22" r="8.18" fill="#7d43c6"/>
<circle cx="453.78" cy="775.22" r="8.18" fill="#7d43c6"/>
<circle cx="491.83" cy="775.22" r="8.18" fill="#7d43c6"/>
<circle cx="605.98" cy="775.22" r="8.18" fill="#7d43c6"/>
<circle cx="644.02" cy="775.22" r="8.18" fill="#d90023"/>
<circle cx="682.07" cy="775.22" r="8.18" fill="#d90023"/>
<circle cx="720.12" cy="775.22" r="8.18" fill="#d90023"/>
<circle cx="739.15" cy="775.22" r="8.18" fill="#d90023"/>
<circle cx="796.22" cy="775.22" r="8.18" fill="#d90023"/>
<circle cx="853.29" cy="775.22" r="8.18" fill="#d90023"/>
<circle cx="891.34" cy="775.22" r="8.18" fill="#d90023"/>
<circle cx="910.37" cy="775.22" r="8.18" fill="#d90023"/>
<circle cx="929.39" cy="775.22" r="8.18" fill="#d90023"/>
<circle cx="967.44" cy="775.22" r="8.18" fill="#d90023"/>
<circle cx="244.51" cy="794.24" r="8.18" fill="#7d43c6"/>
<circle cx="263.54" cy="794.24" r="8.18" fill="#7d43c6"/>
<circle cx="301.59" cy="794.24" r="8.18" fill="#7d43c6"/>
<circle cx="339.63" cy="794.24" r="8.18" fill="#7d43c6"/>
<circle cx="358.66" cy="794.24" r="8.18" fill="#7d43c6"/>
<circle cx="415.73" cy="794.24" r="8.18" fill="#7d43c6"/>
<circle cx="472.80" cy="794.24" r="8.18" fill="#7d43c6"/>
<circle cx="491.83" cy="794.24" r="8.18" fill="#7d43c6"/>
<circle cx="529.88" cy="794.24" r="8.18" fill="#7d43c6"/>
<circle cx="548.90" cy="794.24" r="8.18" fill="#7d43c6"/>
<circle cx="567.93" cy="794.24" r="8.18" fill="#7d43c6"/>
<circle cx="605.98" cy="794.24" r="8.18" fill="#7d43c6"/>
<circle cx="644.02" cy="794.24" r="8.18" fill="#d90023"/>
<circle cx="758.17" cy="794.24" r="8.18" fill="#d90023"/>
<circle cx="796.22" cy="794.24" r="8.18" fill="#d90023"/>
<circle cx="815.24" cy="794.24" r="8.18" fill="#d90023"/>
<circle cx="891.34" cy="794.24" r="8.18" fill="#d90023"/>
<circle cx="929.39" cy="794.24" r="8.18" fill="#d90023"/>
<circle cx="967.44" cy="794.24" r="8.18" fill="#d90023"/>
<circle cx="986.46" cy="794.24" r="8.18" fill="#d90023"/>
<circle cx="263.54" cy="813.27" r="8.18" fill="#7d43c6"/>
<circle cx="282.56" cy="813.27" r="8.18" fill="#7d43c6"/>
<circle cx="301.59" cy="813.27" r="8.18" fill="#7d43c6"/>
<circle cx="320.61" cy="813.27" r="8.18" fill="#7d43c6"/>
<circle cx="396.71" cy="813.27" r="8.18" fill="#7d43c6"/>
<circle cx="415.73" cy="813.27" r="8.18" fill="#7d43c6"/>
<circle cx="453.78" cy="813.27" r="8.18" fill="#7d43c6"/>
<circle cx="491.83" cy="813.27" r="8.18" fill="#7d43c6"/>
<circle cx="529.88" cy="813.27" r="8.18" fill="#7d43c6"/>
<circle cx="548.90" cy="813.27" r="8.18" fill="#7d43c6"/>
<circle cx="567.93" cy="813.27" r="8.18" fill="#7d43c6"/>
<circle cx="586.95" cy="813.27" r="8.18" fill="#7d43c6"/>
<circle cx="605.98" cy="813.27" r="8.18" fill="#7d43c6"/>
<circle cx="625.00" cy="813.27" r="8.18" fill="#d90023"/>
<circle cx="644.02" cy="813.27" r="8.18" fill="#d90023"/>
<circle cx="701.10" cy="813.27" r="8.18" fill="#d90023"/>
<circle cx="739.15" cy="813.27" r="8.18" fill="#d90023"/>
<circle cx="758.17" cy="813.27" r="8.18" fill="#d90023"/>
<circle cx="777.20" cy="813.27" r="8.18" fill="#d90023"/>
<circle cx="815.24" cy="813.27" r="8.18" fill="#d90023"/>
<circle cx="834.27" cy="813.27" r="8.18" fill="#d90023"/>
<circle cx="853.29" cy="813.27" r="8.18" fill="#d90023"/>
<circle cx="872.32" cy="813.27" r="8.18" fill="#d90023"/>
<circle cx="891.34" cy="813.27" r="8.18" fill="#d90023"/>
<circle cx="910.37" cy="813.27" r="8.18" fill="#d90023"/>
<circle cx="929.39" cy="813.27" r="8.18" fill="#d90023"/>
<circle cx="948.41" cy="813.27" r="8.18" fill="#d90023"/>
<circle cx="967.44" cy="813.27" r="8.18" fill="#d90023"/>
<circle cx="1005.49" cy="813.27" r="8.18" fill="#d90023"/>
<circle cx="282.56" cy="832.29" r="8.18" fill="#7d43c6"/>
<circle cx="301.59" cy="832.29" r="8.18" fill="#7d43c6"/>
<circle cx="339.63" cy="832.29" r="8.18" fill="#7d43c6"/>
<circle cx="358.66" cy="832.29" r="8.18" fill="#7d43c6"/>
<circle cx="377.68" cy="832.29" r="8.18" fill="#7d43c6"/>
<circle cx="453.78" cy="832.29" r="8.18" fill="#7d43c6"/>
<circle cx="472.80" cy="832.29" r="8.18" fill="#7d43c6"/>
<circle cx="548.90" cy="832.29" r="8.18" fill="#7d43c6"/>
<circle cx="567.93" cy="832.29" r="8.18" fill="#7d43c6"/>
<circle cx="586.95" cy="832.29" r="8.18" fill="#7d43c6"/>
<circle cx="625.00" cy="832.29" r="8.18" fill="#d90023"/>
<circle cx="682.07" cy="832.29" r="8.18" fill="#d90023"/>
<circle cx="701.10" cy="832.29" r="8.18" fill="#d90023"/>
<circle cx="720.12" cy="832.29" r="8.18" fill="#d90023"/>
<circle cx="739.15" cy="832.29" r="8.18" fill="#d90023"/>
<circle cx="834.27" cy="832.29" r="8.18" fill="#d90023"/>
<circle cx="853.29" cy="832.29" r="8.18" fill="#d90023"/>
<circle cx="872.32" cy="832.29" r="8.18" fill="#d90023"/>
<circle cx="891.34" cy="832.29" r="8.18" fill="#d90023"/>
<circle cx="910.37" cy="832.29" r="8.18" fill="#d90023"/>
<circle cx="929.39" cy="832.29" r="8.18" fill="#d90023"/>
<circle cx="948.41" cy="832.29" r="8.18" fill="#d90023"/>
<circle cx="967.44" cy="832.29" r="8.18" fill="#d90023"/>
<circle cx="1005.49" cy="832.29" r="8.18" fill="#d90023"/>
<circle cx="434.76" cy="851.32" r="8.18" fill="#7d43c6"/>
<circle cx="453.78" cy="851.32" r="8.18" fill="#7d43c6"/>
<circle cx="472.80" cy="851.32" r="8.18" fill="#7d43c6"/>
<circle cx="491.83" cy="851.32" r="8.18" fill="#7d43c6"/>
<circle cx="510.85" cy="851.32" r="8.18" fill="#7d43c6"/>
<circle cx="529.88" cy="851.32" r="8.18" fill="#7d43c6"/>
<circle cx="548.90" cy="851.32" r="8.18" fill="#7d43c6"/>
<circle cx="567.93" cy="851.32" r="8.18" fill="#7d43c6"/>
<circle cx="605.98" cy="851.32" r="8.18" fill="#7d43c6"/>
<circle cx="644.02" cy="851.32" r="8.18" fill="#d90023"/>
<circle cx="815.24" cy="851.32" r="8.18" fill="#d90023"/>
<circle cx="853.29" cy="851.32" r="8.18" fill="#d90023"/>
<circle cx="929.39" cy="851.32" r="8.18" fill="#d90023"/>
<circle cx="967.44" cy="851.32" r="8.18" fill="#d90023"/>
<circle cx="1005.49" cy="851.32" r="8.18" fill="#d90023"/>
<circle cx="244.51" cy="870.34" r="8.18" fill="#7d43c6"/>
<circle cx="263.54" cy="870.34" r="8.18" fill="#7d43c6"/>
<circle cx="282.56" cy="870.34" r="8.18" fill="#7d43c6"/>
<circle cx="301.59" cy="870.34" r="8.18" fill="#7d43c6"/>
<circle cx="320.61" cy="870.34" r="8.18" fill="#7d43c6"/>
<circle cx="339.63" cy="870.34" r="8.18" fill="#7d43c6"/>
<circle cx="358.66" cy="870.34" r="8.18" fill="#7d43c6"/>
<circle cx="453.78" cy="870.34" r="8.18" fill="#7d43c6"/>
<circle cx="472.80" cy="870.34" r="8.18" fill="#7d43c6"/>
<circle cx="510.85" cy="870.34" r="8.18" fill="#7d43c6"/>
<circle cx="586.95" cy="870.34" r="8.18" fill="#7d43c6"/>
<circle cx="605.98" cy="870.34" r="8.18" fill="#7d43c6"/>
<circle cx="625.00" cy="870.34" r="8.18" fill="#d90023"/>
<circle cx="663.05" cy="870.34" r="8.18" fill="#d90023"/>
<circle cx="701.10" cy="870.34" r="8.18" fill="#d90023"/>
<circle cx="720.12" cy="870.34" r="8.18" fill="#d90023"/>
<circle cx="777.20" cy="870.34" r="8.18" fill="#d90023"/>
<circle cx="796.22" cy="870.34" r="8.18" fill="#d90023"/>
<circle cx="834.27" cy="870.34" r="8.18" fill="#d90023"/>
<circle cx="853.29" cy="870.34" r="8.18" fill="#d90023"/>
<circle cx="891.34" cy="870.34" r="8.18" fill="#d90023"/>
<circle cx="929.39" cy="870.34" r="8.18" fill="#d90023"/>
<circle cx="986.46" cy="870.34" r="8.18" fill="#d90023"/>
<circle cx="1005.49" cy="870.34" r="8.18" fill="#d90023"/>
<circle cx="244.51" cy="889.37" r="8.18" fill="#7d43c6"/>
<circle cx="358.66" cy="889.37" r="8.18" fill="#7d43c6"/>
<circle cx="434.76" cy="889.37" r="8.18" fill="#7d43c6"/>
<circle cx="453.78" cy="889.37" r="8.18" fill="#7d43c6"/>
<circle cx="472.80" cy="889.37" r="8.18" fill="#7d43c6"/>
<circle cx="491.83" cy="889.37" r="8.18" fill="#7d43c6"/>
<circle cx="510.85" cy="889.37" r="8.18" fill="#7d43c6"/>
<circle cx="529.88" cy="889.37" r="8.18" fill="#7d43c6"/>
<circle cx="586.95" cy="889.37" r="8.18" fill="#7d43c6"/>
<circle cx="644.02" cy="889.37" r="8.18" fill="#d90023"/>
<circle cx="663.05" cy="889.37" r="8.18" fill="#d90023"/>
<circle cx="720.12" cy="889.37" r="8.18" fill="#d90023"/>
<circle cx="739.15" cy="889.37" r="8.18" fill="#d90023"/>
<circle cx="758.17" cy="889.37" r="8.18" fill="#d90023"/>
<circle cx="777.20" cy="889.37" r="8.18" fill="#d90023"/>
<circle cx="815.24" cy="889.37" r="8.18" fill="#d90023"/>
<circle cx="853.29" cy="889.37" r="8.18" fill="#d90023"/>
<circle cx="929.39" cy="889.37" r="8.18" fill="#d90023"/>
<circle cx="948.41" cy="889.37" r="8.18" fill="#d90023"/>
<circle cx="967.44" cy="889.37" r="8.18" fill="#d90023"/>
<circle cx="244.51" cy="908.39" r="8.18" fill="#7d43c6"/>
<circle cx="282.56" cy="908.39" r="8.18" fill="#7d43c6"/>
<circle cx="301.59" cy="908.39" r="8.18" fill="#7d43c6"/>
<circle cx="320.61" cy="908.39" r="8.18" fill="#7d43c6"/>
<circle cx="358.66" cy="908.39" r="8.18" fill="#7d43c6"/>
<circle cx="415.73" cy="908.39" r="8.18" fill="#7d43c6"/>
<circle cx="434.76" cy="908.39" r="8.18" fill="#7d43c6"/>
<circle cx="491.83" cy="908.39" r="8.18" fill="#7d43c6"/>
<circle cx="567.93" cy="908.39" r="8.18" fill="#7d43c6"/>
<circle cx="586.95" cy="908.39" r="8.18" fill="#7d43c6"/>
<circle cx="605.98" cy="908.39" r="8.18" fill="#7d43c6"/>
<circle cx="625.00" cy="908.39" r="8.18" fill="#d90023"/>
<circle cx="720.12" cy="908.39" r="8.18" fill="#d90023"/>
<circle cx="739.15" cy="908.39" r="8.18" fill="#d90023"/>
<circle cx="758.17" cy="908.39" r="8.18" fill="#d90023"/>
<circle cx="796.22" cy="908.39" r="8.18" fill="#d90023"/>
<circle cx="834.27" cy="908.39" r="8.18" fill="#d90023"/>
<circle cx="853.29" cy="908.39" r="8.18" fill="#d90023"/>
<circle cx="872.32" cy="908.39" r="8.18" fill="#d90023"/>
<circle cx="891.34" cy="908.39" r="8.18" fill="#d90023"/>
<circle cx="910.37" cy="908.39" r="8.18" fill="#d90023"/>
<circle cx="929.39" cy="908.39" r="8.18" fill="#d90023"/>
<circle cx="967.44" cy="908.39" r="8.18" fill="#d90023"/>
<circle cx="986.46" cy="908.39" r="8.18" fill="#d90023"/>
<circle cx="1005.49" cy="908.39" r="8.18" fill="#d90023"/>
<circle cx="244.51" cy="927.41" r="8.18" fill="#7d43c6"/>
<circle cx="282.56" cy="927.41" r="8.18" fill="#7d43c6"/>
<circle cx="301.59" cy="927.41" r="8.18" fill="#7d43c6"/>
<circle cx="320.61" cy="927.41" r="8.18" fill="#7d43c6"/>
<circle cx="358.66" cy="927.41" r="8.18" fill="#7d43c6"/>
<circle cx="396.71" cy="927.41" r="8.18" fill="#7d43c6"/>
<circle cx="453.78" cy="927.41" r="8.18" fill="#7d43c6"/>
<circle cx="510.85" cy="927.41" r="8.18" fill="#7d43c6"/>
<circle cx="529.88" cy="927.41" r="8.18" fill="#7d43c6"/>
<circle cx="548.90" cy="927.41" r="8.18" fill="#7d43c6"/>
<circle cx="567.93" cy="927.41" r="8.18" fill="#7d43c6"/>
<circle cx="586.95" cy="927.41" r="8.18" fill="#7d43c6"/>
<circle cx="625.00" cy="927.41" r="8.18" fill="#d90023"/>
<circle cx="644.02" cy="927.41" r="8.18" fill="#d90023"/>
<circle cx="682.07" cy="927.41" r="8.18" fill="#d90023"/>
<circle cx="701.10" cy="927.41" r="8.18" fill="#d90023"/>
<circle cx="739.15" cy="927.41" r="8.18" fill="#d90023"/>
<circle cx="758.17" cy="927.41" r="8.18" fill="#d90023"/>
<circle cx="777.20" cy="927.41" r="8.18" fill="#d90023"/>
<circle cx="815.24" cy="927.41" r="8.18" fill="#d90023"/>
<circle cx="872.32" cy="927.41" r="8.18" fill="#d90023"/>
<circle cx="910.37" cy="927.41" r="8.18" fill="#d90023"/>
<circle cx="929.39" cy="927.41" r="8.18" fill="#d90023"/>
<circle cx="948.41" cy="927.41" r="8.18" fill="#d90023"/>
<circle cx="1005.49" cy="927.41" r="8.18" fill="#d90023"/>
<circle cx="244.51" cy="946.44" r="8.18" fill="#7d43c6"/>
<circle cx="282.56" cy="946.44" r="8.18" fill="#7d43c6"/>
<circle cx="301.59" cy="946.44" r="8.18" fill="#7d43c6"/>
<circle cx="320.61" cy="946.44" r="8.18" fill="#7d43c6"/>
<circle cx="358.66" cy="946.44" r="8.18" fill="#7d43c6"/>
<circle cx="396.71" cy="946.44" r="8.18" fill="#7d43c6"/>
<circle cx="434.76" cy="946.44" r="8.18" fill="#7d43c6"/>
<circle cx="510.85" cy="946.44" r="8.18" fill="#7d43c6"/>
<circle cx="529.88" cy="946.44" r="8.18" fill="#7d43c6"/>
<circle cx="567.93" cy="946.44" r="8.18" fill="#7d43c6"/>
<circle cx="605.98" cy="946.44" r="8.18" fill="#7d43c6"/>
<circle cx="625.00" cy="946.44" r="8.18" fill="#d90023"/>
<circle cx="682.07" cy="946.44" r="8.18" fill="#d90023"/>
<circle cx="701.10" cy="946.44" r="8.18" fill="#d90023"/>
<circle cx="720.12" cy="946.44" r="8.18" fill="#d90023"/>
<circle cx="758.17" cy="946.44" r="8.18" fill="#d90023"/>
<circle cx="815.24" cy="946.44" r="8.18" fill="#d90023"/>
<circle cx="834.27" cy="946.44" r="8.18" fill="#d90023"/>
<circle cx="853.29" cy="946.44" r="8.18" fill="#d90023"/>
<circle cx="872.32" cy="946.44" r="8.18" fill="#d90023"/>
<circle cx="891.34" cy="946.44" r="8.18" fill="#d90023"/>
<circle cx="948.41" cy="946.44" r="8.18" fill="#d90023"/>
<circle cx="986.46" cy="946.44" r="8.18" fill="#d90023"/>
<circle cx="1005.49" cy="946.44" r="8.18" fill="#d90023"/>
<circle cx="244.51" cy="965.46" r="8.18" fill="#7d43c6"/>
<circle cx="358.66" cy="965.46" r="8.18" fill="#7d43c6"/>
<circle cx="434.76" cy="965.46" r="8.18" fill="#7d43c6"/>
<circle cx="453.78" cy="965.46" r="8.18" fill="#7d43c6"/>
<circle cx="529.88" cy="965.46" r="8.18" fill="#7d43c6"/>
<circle cx="548.90" cy="965.46" r="8.18" fill="#7d43c6"/>
<circle cx="605.98" cy="965.46" r="8.18" fill="#7d43c6"/>
<circle cx="682.07" cy="965.46" r="8.18" fill="#d90023"/>
<circle cx="834.27" cy="965.46" r="8.18" fill="#d90023"/>
<circle cx="967.44" cy="965.46" r="8.18" fill="#d90023"/>
<circle cx="244.51" cy="984.49" r="8.18" fill="#7d43c6"/>
<circle cx="263.54" cy="984.49" r="8.18" fill="#7d43c6"/>
<circle cx="282.56" cy="984.49" r="8.18" fill="#7d43c6"/>
<circle cx="301.59" cy="984.49" r="8.18" fill="#7d43c6"/>
<circle cx="320.61" cy="984.49" r="8.18" fill="#7d43c6"/>
<circle cx="339.63" cy="984.49" r="8.18" fill="#7d43c6"/>
<circle cx="358.66" cy="984.49" r="8.18" fill="#7d43c6"/>
<circle cx="415.73" cy="984.49" r="8.18" fill="#7d43c6"/>
<circle cx="453.78" cy="984.49" r="8.18" fill="#7d43c6"/>
<circle cx="472.80" cy="984.49" r="8.18" fill="#7d43c6"/>
<circle cx="491.83" cy="984.49" r="8.18" fill="#7d43c6"/>
<circle cx="510.85" cy="984.49" r="8.18" fill="#7d43c6"/>
<circle cx="529.88" cy="984.49" r="8.18" fill="#7d43c6"/>
<circle cx="548.90" cy="984.49" r="8.18" fill="#7d43c6"/>
<circle cx="586.95" cy="984.49" r="8.18" fill="#7d43c6"/>
<circle cx="605.98" cy="984.49" r="8.18" fill="#7d43c6"/>
<circle cx="682.07" cy="984.49" r="8.18" fill="#d90023"/>
<circle cx="720.12" cy="984.49" r="8.18" fill="#d90023"/>
<circle cx="739.15" cy="984.49" r="8.18" fill="#d90023"/>
<circle cx="758.17" cy="984.49" r="8.18" fill="#d90023"/>
<circle cx="815.24" cy="984.49" r="8.18" fill="#d90023"/>
<circle cx="834.27" cy="984.49" r="8.18" fill="#d90023"/>
<circle cx="910.37" cy="984.49" r="8.18" fill="#d90023"/>
<circle cx="948.41" cy="984.49" r="8.18" fill="#d90023"/>
<circle cx="967.44" cy="984.49" r="8.18" fill="#d90023"/>
<circle cx="986.46" cy="984.49" r="8.18" fill="#d90023"/>

  <rect x="514" y="490" width="232" height="232" rx="40" fill="#fff" stroke="#e50000" stroke-width="4"/>
  <path d="M552 645 L626 561 L708 645" fill="none" stroke="#202020" stroke-width="20" stroke-linecap="round" stroke-linejoin="round"/>
  <path d="M608 645 L627 614 L658 645 Z" fill="#e50000"/>
  <path d="M684 575 v68 h40 v-68 z" fill="#202020"/>
  <text x="625" y="1165" text-anchor="middle" font-family="Arial Black, Arial, sans-serif" font-size="48" font-weight="900" fill="#e50000" letter-spacing="3">CORRALON PROGRESO</text>
  <text x="625" y="1204" text-anchor="middle" font-family="Arial, sans-serif" font-size="30" fill="#1a2032" letter-spacing="1">Escanea y jug? el prode mundial</text>
</svg>